<svg width="240" height="150" viewBox="0 0 240 150" fill="none" xmlns="http://www.w3.org/2000/svg">
<rect x="1" y="1" width="238" height="148" fill="white"/>
<rect width="180" height="120" transform="translate(30 15)" fill="#F0F0F0"/>
<path d="M71.8639 40.9592C71.8639 34.8402 69.8934 33.008 63.1521 33.008H54.5095C46.7657 33.008 45.9014 36.8107 45.9014 41.8581H51.6401C51.6401 38.401 51.8821 37.5367 57.4134 37.5367H61.4236C65.2264 37.5367 66.0906 38.2627 66.0906 40.4752C66.0906 42.6878 65.2955 43.552 62.2187 43.7249L54.6132 44.1397C47.2151 44.5546 45.9014 47.7696 45.9014 51.5378V57H71.8294V52.4712H51.6401V51.1921C51.6401 49.671 52.3661 49.1179 55.7886 48.9105L63.2558 48.4611C68.3377 48.1499 71.8639 46.0065 71.8639 40.9592Z" fill="#A9A9A9"/>
<path d="M47.6098 78.0729H49.3377V76.5845H44.1711V78.0729H45.899V83H47.6098V78.0729ZM52.0284 77.9874H54.9453V76.5845H50.3176V83H55.0052V81.5971H52.0284V80.3483H54.7657V79.1593H52.0284V77.9874ZM58.0907 76.5845H56.3799V83H58.0907V80.4851H58.604L60.3917 83H62.5131L60.0667 79.7324L62.325 76.5845H60.2549L58.604 78.9967H58.0907V76.5845ZM62.7888 76.5845L64.9957 81.255C64.8845 81.5886 64.7819 81.6827 64.243 81.6827C64.012 81.6827 63.8324 81.6741 63.6784 81.6228V83.0086C63.9436 83.0513 64.2002 83.0855 64.5338 83.0855C65.4406 83.0855 66.0137 82.6664 66.5184 81.6485L69.0161 76.5845H67.0401L65.9367 79.3389H65.8597L64.7306 76.5845H62.7888ZM71.6271 76.5845H69.9163V83H77.2727V84.4627H78.898V81.5116H78.3677V76.5845H76.6569V81.5116H74.9974V76.5845H73.2866V81.5116H71.6271V76.5845ZM81.5217 76.5845H79.8964V83H82.2231L84.1478 78.7743H84.2076V83H85.8329V76.5845H83.5832L81.5816 80.8102H81.5217V76.5845ZM88.9142 77.9874H91.8311V76.5845H87.2034V83H91.891V81.5971H88.9142V80.3483H91.6515V79.1593H88.9142V77.9874ZM98.3156 76.5845H96.6048V83H98.3156V80.4851H100.548V83H102.259V76.5845H100.548V78.9967H98.3156V76.5845ZM107.511 81.8965L107.845 83H109.59L107.64 76.5845H105.039L103.115 83H104.894L105.21 81.8965H107.511ZM107.161 80.6562H105.578L106.357 77.8676H106.374L107.161 80.6562ZM110.442 76.5845V83H112.153V78.0729H114.385V83H116.096V76.5845H110.442ZM119.176 81.2208H120.69C122.478 81.2208 122.88 80.6562 122.88 78.8513C122.88 77.1747 122.281 76.5845 120.69 76.5845H117.465V83H119.176V81.2208ZM119.176 77.9874H120.348C121.015 77.9874 121.117 78.2098 121.117 78.8684C121.117 79.6982 120.998 79.8179 120.348 79.8179H119.176V77.9874ZM127.645 81.8965L127.978 83H129.723L127.773 76.5845H125.173L123.248 83H125.027L125.344 81.8965H127.645ZM127.294 80.6562H125.711L126.49 77.8676H126.507L127.294 80.6562ZM130.575 83H133.98C135.34 83 136.075 82.7861 136.075 81.2122C136.075 80.4081 135.913 79.835 134.963 79.7751V79.7067C135.81 79.5698 135.973 79.0395 135.973 78.2269C135.973 76.824 135.22 76.5845 133.946 76.5845H130.575V83ZM132.286 77.9874H133.723C134.176 77.9874 134.262 78.1499 134.262 78.5348C134.262 79.048 134.117 79.1507 133.518 79.1507H132.286V77.9874ZM132.286 80.3397H133.612C134.168 80.3397 134.365 80.4167 134.365 80.947C134.365 81.4688 134.134 81.5971 133.578 81.5971H132.286V80.3397ZM137.957 76.5845V80.7931C137.957 81.4261 137.794 81.6656 137.324 81.6656C137.093 81.6656 136.956 81.657 136.802 81.6057V82.9914C137.067 83.0428 137.307 83.0684 137.674 83.0684C138.975 83.0684 139.582 82.1703 139.582 80.7674V78.0729H141.438V83H143.149V76.5845H137.957ZM146.232 77.9874H149.149V76.5845H144.521V83H149.209V81.5971H146.232V80.3483H148.969V79.1593H146.232V77.9874ZM152.294 76.5845H150.583V83H152.294V80.4851H154.527V83H156.237V76.5845H154.527V78.9967H152.294V76.5845ZM159.231 76.5845H157.606V83H159.933L161.858 78.7743H161.917V83H163.543V76.5845H161.293L159.291 80.8102H159.231V76.5845ZM168.386 83H170.097V76.5845H166.812C165.29 76.5845 164.742 77.2346 164.742 78.6118C164.742 79.6468 165.059 80.1857 165.888 80.5364L164.494 83H166.453L167.582 80.7417H168.386V83ZM168.386 79.3389H167.231C166.744 79.3389 166.453 79.1678 166.453 78.6717C166.453 78.1242 166.615 77.9874 167.103 77.9874H168.386V79.3389ZM45.3259 87.5845V89.8342C45.3259 91.2371 45.1377 91.9214 44.6929 92.5287H44.1882V95.4798H45.8134V94H49.1752V95.4798H50.8004V92.5287H50.2615V87.5845H45.3259ZM48.5507 89.0558V92.5287H46.4208C46.7801 91.8957 46.9511 91.2028 46.9511 89.9368V89.0558H48.5507ZM53.5153 88.9874H56.4322V87.5845H51.8045V94H56.4921V92.5971H53.5153V91.3483H56.2526V90.1593H53.5153V88.9874ZM61.3398 94H63.0506V87.5845H59.7658C58.2432 87.5845 57.6958 88.2346 57.6958 89.6118C57.6958 90.6468 58.0123 91.1857 58.842 91.5364L57.4477 94H59.4066L60.5357 91.7417H61.3398V94ZM61.3398 90.3389H60.185C59.6974 90.3389 59.4066 90.1678 59.4066 89.6717C59.4066 89.1242 59.5691 88.9874 60.0567 88.9874H61.3398V90.3389ZM67.4758 89.0729H69.2037V87.5845H64.0371V89.0729H65.765V94H67.4758V89.0729ZM71.8944 88.9874H74.8113V87.5845H70.1836V94H74.8712V92.5971H71.8944V91.3483H74.6317V90.1593H71.8944V88.9874ZM76.9303 87.5845V91.7931C76.9303 92.4261 76.7677 92.6656 76.2973 92.6656C76.0663 92.6656 75.9294 92.657 75.7755 92.6057V93.9914C76.0406 94.0428 76.2801 94.0684 76.648 94.0684C77.9482 94.0684 78.5555 93.1703 78.5555 91.7674V89.0729H80.4117V94H82.1225V87.5845H76.9303ZM85.2053 87.5845H83.4944V94H86.7963C88.088 94 88.7723 93.4697 88.7723 92.0326C88.7723 90.5955 88.1051 90.0652 86.7963 90.0652H85.2053V87.5845ZM85.2053 91.3996H86.3943C86.8818 91.3996 87.0615 91.5193 87.0615 92.0497C87.0615 92.5458 86.8818 92.6656 86.3943 92.6656H85.2053V91.3996ZM91.6769 87.5845H89.9661V94H91.6769V91.4851H93.9095V94H95.6203V87.5845H93.9095V89.9967H91.6769V87.5845ZM99.7862 94.0855C101.523 94.0855 102.754 93.6749 102.754 91.699V89.8855C102.754 87.9095 101.523 87.5246 99.7862 87.5246C98.0498 87.5246 96.818 87.9095 96.818 89.8855V91.699C96.818 93.6749 98.0498 94.0855 99.7862 94.0855ZM99.7862 92.5971C98.8966 92.5971 98.5801 92.4688 98.5801 91.5108V90.0652C98.5801 89.1071 98.8966 89.013 99.7862 89.013C100.676 89.013 100.992 89.1157 100.992 90.0652V91.5108C100.992 92.4688 100.676 92.5971 99.7862 92.5971ZM109.428 89.8855V89.6375C109.428 87.9951 108.504 87.5246 106.802 87.5246C104.92 87.5246 103.782 87.8411 103.782 89.9625V91.622C103.782 93.9658 105.057 94.0855 106.802 94.0855C108.804 94.0855 109.428 93.598 109.428 91.7931V91.6049H107.666V91.7931C107.666 92.5458 107.324 92.5971 106.614 92.5971C105.587 92.5971 105.545 92.1951 105.545 91.2371V90.2362C105.545 89.321 105.639 89.013 106.614 89.013C107.196 89.013 107.666 89.1242 107.666 89.6375V89.8855H109.428ZM113.679 89.0729H115.407V87.5845H110.241V89.0729H111.969V94H113.679V89.0729ZM118.013 87.5845H116.387V94H118.714L120.639 89.7743H120.698V94H122.324V87.5845H120.074L118.072 91.8102H118.013V87.5845Z" fill="#43525A"/>
<path d="M45.1688 109.052C45.8917 109.052 46.466 108.47 46.466 107.731C46.466 106.996 45.8917 106.41 45.1688 106.41C44.4459 106.41 43.8715 106.996 43.8715 107.731C43.8715 108.47 44.4459 109.052 45.1688 109.052ZM53.0042 106.715V104.205H52.1046V110H53.0042V107.458H53.1809L55.5986 110H56.7392L53.944 107.016L56.5303 104.205H55.4661L53.1769 106.715H53.0042ZM59.1689 110.084C60.4461 110.084 61.2292 109.229 61.2292 107.811C61.2292 106.402 60.442 105.542 59.1689 105.542C57.8918 105.542 57.1047 106.402 57.1047 107.811C57.1047 109.229 57.8878 110.084 59.1689 110.084ZM59.1689 109.317C58.4179 109.317 57.9962 108.767 57.9962 107.811C57.9962 106.863 58.4179 106.309 59.1689 106.309C59.9159 106.309 60.3416 106.863 60.3416 107.811C60.3416 108.763 59.9159 109.317 59.1689 109.317ZM63.1851 110V106.984H63.2614L64.5425 109.823H65.177L66.4582 106.984H66.5345V110H67.3779V105.626H66.3216L64.908 108.755H64.8397L63.43 105.626H62.3457V110H63.1851ZM71.5466 110H72.4061V105.626H68.7072V110H69.5707V106.353H71.5466V110ZM74.9201 108L75.0406 106.353H76.4262V110H77.2897V105.626H74.2776L74.125 107.956C74.0727 108.711 73.9201 109.221 73.4944 109.221C73.386 109.221 73.3017 109.201 73.2615 109.189V109.996C73.3137 110.016 73.4141 110.044 73.5587 110.044C74.5266 110.044 74.8358 109.245 74.9201 108ZM80.4182 106.277C81.0568 106.277 81.4745 106.723 81.4945 107.41H79.2857C79.3339 106.727 79.7797 106.277 80.4182 106.277ZM81.4905 108.819C81.3299 109.161 80.9724 109.349 80.4503 109.349C79.7596 109.349 79.3138 108.863 79.2857 108.096V108.048H82.3741V107.747C82.3741 106.373 81.6391 105.542 80.4222 105.542C79.1893 105.542 78.4061 106.43 78.4061 107.827C78.4061 109.225 79.1732 110.084 80.4262 110.084C81.4263 110.084 82.1251 109.602 82.3219 108.819H81.4905ZM84.5468 108.088L86.1412 110H87.2175L85.2536 107.659L87.1372 105.626H86.1211L84.5428 107.402H84.35V105.626H83.4865V110H84.35V108.088H84.5468ZM91.6433 107.056C91.5308 106.181 90.8681 105.542 89.7717 105.542C88.4986 105.542 87.7235 106.398 87.7235 107.799C87.7235 109.225 88.5027 110.084 89.7758 110.084C90.8561 110.084 91.5308 109.474 91.6433 108.594H90.8039C90.6914 109.064 90.3179 109.313 89.7717 109.313C89.0529 109.313 88.6071 108.747 88.6071 107.799C88.6071 106.867 89.0488 106.313 89.7717 106.313C90.3501 106.313 90.7035 106.63 90.8039 107.056H91.6433ZM95.5871 110H96.4465V105.626H95.5871V107.377H93.571V105.626H92.7075V110H93.571V108.104H95.5871V110ZM101.732 110H102.595V105.626H101.732V110ZM99.4385 107.691C99.9606 107.691 100.302 108.004 100.302 108.482C100.302 108.956 99.9647 109.273 99.4385 109.273H98.6393V107.691H99.4385ZM97.7759 110H99.5028C100.515 110 101.161 109.41 101.161 108.482C101.161 107.558 100.515 106.968 99.5028 106.968H98.6393V105.626H97.7759V110ZM105.72 106.277C106.358 106.277 106.776 106.723 106.796 107.41H104.587C104.635 106.727 105.081 106.277 105.72 106.277ZM106.792 108.819C106.631 109.161 106.274 109.349 105.752 109.349C105.061 109.349 104.615 108.863 104.587 108.096V108.048H107.676V107.747C107.676 106.373 106.941 105.542 105.724 105.542C104.491 105.542 103.708 106.43 103.708 107.827C103.708 109.225 104.475 110.084 105.728 110.084C106.728 110.084 107.427 109.602 107.623 108.819H106.792ZM111.893 110L113.913 106.976H113.977V110H114.832V105.626H113.977L111.961 108.635H111.893V105.626H111.037V110H111.893ZM119.869 107.056C119.756 106.181 119.093 105.542 117.997 105.542C116.724 105.542 115.949 106.398 115.949 107.799C115.949 109.225 116.728 110.084 118.001 110.084C119.081 110.084 119.756 109.474 119.869 108.594H119.029C118.917 109.064 118.543 109.313 117.997 109.313C117.278 109.313 116.832 108.747 116.832 107.799C116.832 106.867 117.274 106.313 117.997 106.313C118.575 106.313 118.929 106.63 119.029 107.056H119.869ZM124.64 107.056C124.527 106.181 123.865 105.542 122.768 105.542C121.495 105.542 120.72 106.398 120.72 107.799C120.72 109.225 121.499 110.084 122.772 110.084C123.853 110.084 124.527 109.474 124.64 108.594H123.8C123.688 109.064 123.314 109.313 122.768 109.313C122.049 109.313 121.603 108.747 121.603 107.799C121.603 106.867 122.045 106.313 122.768 106.313C123.346 106.313 123.7 106.63 123.8 107.056H124.64ZM126.889 108L127.009 106.353H128.395V110H129.258V105.626H126.246L126.094 107.956C126.041 108.711 125.889 109.221 125.463 109.221C125.355 109.221 125.27 109.201 125.23 109.189V109.996C125.282 110.016 125.383 110.044 125.527 110.044C126.495 110.044 126.804 109.245 126.889 108ZM132.387 106.277C133.025 106.277 133.443 106.723 133.463 107.41H131.254C131.302 106.727 131.748 106.277 132.387 106.277ZM133.459 108.819C133.298 109.161 132.941 109.349 132.419 109.349C131.728 109.349 131.282 108.863 131.254 108.096V108.048H134.343V107.747C134.343 106.373 133.608 105.542 132.391 105.542C131.158 105.542 130.375 106.43 130.375 107.827C130.375 109.225 131.142 110.084 132.395 110.084C133.395 110.084 134.094 109.602 134.29 108.819H133.459ZM138.21 109.273H136.21V109.205C136.407 108.932 136.511 108.494 136.551 108L136.672 106.353H138.21V109.273ZM135.704 111.145V110H138.953V111.145H139.752V109.273H139.07V105.626H135.921L135.76 107.956C135.72 108.546 135.576 109.076 135.254 109.273H134.901V111.145H135.704ZM142.479 110.084C143.756 110.084 144.54 109.229 144.54 107.811C144.54 106.402 143.752 105.542 142.479 105.542C141.202 105.542 140.415 106.402 140.415 107.811C140.415 109.229 141.198 110.084 142.479 110.084ZM142.479 109.317C141.728 109.317 141.307 108.767 141.307 107.811C141.307 106.863 141.728 106.309 142.479 106.309C143.226 106.309 143.652 106.863 143.652 107.811C143.652 108.763 143.226 109.317 142.479 109.317ZM147.463 106.289C147.921 106.289 148.138 106.51 148.138 106.851C148.138 107.221 147.889 107.422 147.367 107.422H146.511V106.289H147.463ZM147.427 108.056C148.009 108.056 148.319 108.261 148.319 108.699C148.319 109.112 148.046 109.337 147.536 109.337H146.511V108.056H147.427ZM145.656 110H147.648C148.608 110 149.182 109.502 149.182 108.739C149.182 108.209 148.813 107.795 148.246 107.731V107.663C148.672 107.582 148.985 107.181 148.985 106.739C148.985 106.06 148.483 105.626 147.628 105.626H145.656V110ZM151.756 109.345C151.287 109.345 150.945 109.116 150.945 108.723C150.945 108.337 151.218 108.133 151.821 108.092L152.889 108.024V108.39C152.889 108.932 152.407 109.345 151.756 109.345ZM151.536 110.072C152.11 110.072 152.588 109.823 152.849 109.386H152.917V110H153.748V107.012C153.748 106.088 153.13 105.542 152.034 105.542C151.042 105.542 150.335 106.024 150.246 106.775H151.082C151.178 106.466 151.512 106.289 151.993 106.289C152.584 106.289 152.889 106.55 152.889 107.012V107.39L151.704 107.458C150.664 107.522 150.078 107.976 150.078 108.763C150.078 109.562 150.692 110.072 151.536 110.072ZM157.933 110H158.793V105.626H157.933V107.377H155.917V105.626H155.054V110H155.917V108.104H157.933V110ZM160.977 110L162.998 106.976H163.062V110H163.917V105.626H163.062L161.046 108.635H160.977V105.626H160.122V110H160.977ZM166.829 107.807C166.311 107.807 165.974 107.514 165.974 107.1C165.974 106.639 166.307 106.353 166.829 106.353H167.612V107.807H166.829ZM167.612 110H168.464V105.626H166.785C165.777 105.626 165.118 106.193 165.118 107.104C165.118 107.707 165.488 108.173 166.09 108.345L164.897 110H165.901L166.962 108.502H167.612V110ZM173.102 108.088L174.697 110H175.773L173.809 107.659L175.693 105.626H174.676L173.098 107.402H172.905V105.626H172.042V110H172.905V108.088H173.102ZM178.291 106.277C178.93 106.277 179.347 106.723 179.367 107.41H177.158C177.207 106.727 177.652 106.277 178.291 106.277ZM179.363 108.819C179.203 109.161 178.845 109.349 178.323 109.349C177.632 109.349 177.187 108.863 177.158 108.096V108.048H180.247V107.747C180.247 106.373 179.512 105.542 178.295 105.542C177.062 105.542 176.279 106.43 176.279 107.827C176.279 109.225 177.046 110.084 178.299 110.084C179.299 110.084 179.998 109.602 180.195 108.819H179.363ZM183.628 105.554C183.034 105.554 182.52 105.851 182.255 106.349H182.191V105.626H181.359V111.454H182.223V109.337H182.291C182.52 109.799 183.014 110.072 183.636 110.072C184.741 110.072 185.444 109.201 185.444 107.811C185.444 106.422 184.741 105.554 183.628 105.554ZM183.383 109.297C182.661 109.297 182.207 108.727 182.207 107.815C182.207 106.9 182.661 106.329 183.387 106.329C184.118 106.329 184.556 106.888 184.556 107.811C184.556 108.739 184.118 109.297 183.383 109.297ZM189.444 110H190.303V105.626H189.444V107.377H187.428V105.626H186.564V110H187.428V108.104H189.444V110ZM193.066 109.345C192.596 109.345 192.255 109.116 192.255 108.723C192.255 108.337 192.528 108.133 193.131 108.092L194.199 108.024V108.39C194.199 108.932 193.717 109.345 193.066 109.345ZM192.845 110.072C193.42 110.072 193.898 109.823 194.159 109.386H194.227V110H195.058V107.012C195.058 106.088 194.44 105.542 193.343 105.542C192.351 105.542 191.645 106.024 191.556 106.775H192.392C192.488 106.466 192.821 106.289 193.303 106.289C193.894 106.289 194.199 106.55 194.199 107.012V107.39L193.014 107.458C191.974 107.522 191.388 107.976 191.388 108.763C191.388 109.562 192.002 110.072 192.845 110.072ZM45.1688 122.052C45.8917 122.052 46.466 121.47 46.466 120.731C46.466 119.996 45.8917 119.41 45.1688 119.41C44.4459 119.41 43.8715 119.996 43.8715 120.731C43.8715 121.47 44.4459 122.052 45.1688 122.052ZM56.7994 123V117.205H52.1046V123H53.0082V118.028H55.9079V123H56.7994ZM60.5023 118.554C59.9079 118.554 59.3938 118.851 59.1288 119.349H59.0645V118.626H58.2332V124.454H59.0966V122.337H59.1649C59.3938 122.799 59.8878 123.072 60.5103 123.072C61.6148 123.072 62.3176 122.201 62.3176 120.811C62.3176 119.422 61.6148 118.554 60.5023 118.554ZM60.2573 122.297C59.5344 122.297 59.0806 121.727 59.0806 120.815C59.0806 119.9 59.5344 119.329 60.2613 119.329C60.9923 119.329 61.43 119.888 61.43 120.811C61.43 121.739 60.9923 122.297 60.2573 122.297ZM64.2935 123L66.3136 119.976H66.3779V123H67.2333V118.626H66.3779L64.3618 121.635H64.2935V118.626H63.4381V123H64.2935ZM69.6229 121.088L71.2173 123H72.2936L70.3297 120.659L72.2133 118.626H71.1972L69.6189 120.402H69.4261V118.626H68.5626V123H69.4261V121.088H69.6229ZM74.3258 121L74.4462 119.353H75.8318V123H76.6953V118.626H73.6832L73.5306 120.956C73.4784 121.711 73.3257 122.221 72.9 122.221C72.7916 122.221 72.7073 122.201 72.6671 122.189V122.996C72.7193 123.016 72.8197 123.044 72.9643 123.044C73.9322 123.044 74.2414 122.245 74.3258 121ZM79.4584 122.345C78.9885 122.345 78.6471 122.116 78.6471 121.723C78.6471 121.337 78.9202 121.133 79.5226 121.092L80.5909 121.024V121.39C80.5909 121.932 80.109 122.345 79.4584 122.345ZM79.2375 123.072C79.8118 123.072 80.2897 122.823 80.5507 122.386H80.619V123H81.4504V120.012C81.4504 119.088 80.8319 118.542 79.7355 118.542C78.7435 118.542 78.0367 119.024 77.9483 119.775H78.7837C78.88 119.466 79.2134 119.289 79.6953 119.289C80.2857 119.289 80.5909 119.55 80.5909 120.012V120.39L79.4061 120.458C78.366 120.522 77.7796 120.976 77.7796 121.763C77.7796 122.562 78.3941 123.072 79.2375 123.072ZM85.5428 122.273H83.5428V122.205C83.7395 121.932 83.844 121.494 83.8841 121L84.0046 119.353H85.5428V122.273ZM83.0367 124.145V123H86.2858V124.145H87.085V122.273H86.4022V118.626H83.2536L83.0929 120.956C83.0528 121.546 82.9082 122.076 82.5869 122.273H82.2335V124.145H83.0367ZM90.84 123H91.6995V118.626H90.84V120.377H88.8239V118.626H87.9605V123H88.8239V121.104H90.84V123ZM94.4626 122.345C93.9927 122.345 93.6513 122.116 93.6513 121.723C93.6513 121.337 93.9244 121.133 94.5268 121.092L95.5951 121.024V121.39C95.5951 121.932 95.1132 122.345 94.4626 122.345ZM94.2417 123.072C94.816 123.072 95.2939 122.823 95.555 122.386H95.6232V123H96.4546V120.012C96.4546 119.088 95.8361 118.542 94.7397 118.542C93.7477 118.542 93.0409 119.024 92.9525 119.775H93.7879C93.8842 119.466 94.2176 119.289 94.6995 119.289C95.2899 119.289 95.5951 119.55 95.5951 120.012V120.39L94.4104 120.458C93.3702 120.522 92.7838 120.976 92.7838 121.763C92.7838 122.562 93.3983 123.072 94.2417 123.072ZM99.3422 120.807C98.8241 120.807 98.4867 120.514 98.4867 120.1C98.4867 119.639 98.8201 119.353 99.3422 119.353H100.125V120.807H99.3422ZM100.125 123H100.977V118.626H99.298C98.2899 118.626 97.6313 119.193 97.6313 120.104C97.6313 120.707 98.0008 121.173 98.6032 121.345L97.4104 123H98.4144L99.4747 121.502H100.125V123ZM105.153 121.602H104.314C104.431 122.47 105.105 123.08 106.198 123.08C107.455 123.08 108.266 122.205 108.266 120.799C108.266 119.422 107.459 118.542 106.202 118.542C105.105 118.542 104.431 119.193 104.314 120.036H105.153C105.258 119.626 105.623 119.313 106.202 119.313C106.824 119.313 107.294 119.731 107.366 120.418H105.503V121.084H107.378C107.322 121.835 106.86 122.313 106.202 122.313C105.651 122.313 105.266 122.06 105.153 121.602ZM110.443 121.088L112.037 123H113.113L111.15 120.659L113.033 118.626H112.017L110.439 120.402H110.246V118.626H109.382V123H110.246V121.088H110.443ZM115.684 123.084C116.961 123.084 117.744 122.229 117.744 120.811C117.744 119.402 116.957 118.542 115.684 118.542C114.407 118.542 113.619 119.402 113.619 120.811C113.619 122.229 114.403 123.084 115.684 123.084ZM115.684 122.317C114.933 122.317 114.511 121.767 114.511 120.811C114.511 119.863 114.933 119.309 115.684 119.309C116.431 119.309 116.856 119.863 116.856 120.811C116.856 121.763 116.431 122.317 115.684 122.317ZM120.013 121L120.134 119.353H121.519V123H122.383V118.626H119.371L119.218 120.956C119.166 121.711 119.013 122.221 118.587 122.221C118.479 122.221 118.395 122.201 118.354 122.189V122.996C118.407 123.016 118.507 123.044 118.652 123.044C119.62 123.044 119.929 122.245 120.013 121ZM125.563 123.084C126.841 123.084 127.624 122.229 127.624 120.811C127.624 119.402 126.836 118.542 125.563 118.542C124.286 118.542 123.499 119.402 123.499 120.811C123.499 122.229 124.282 123.084 125.563 123.084ZM125.563 122.317C124.812 122.317 124.391 121.767 124.391 120.811C124.391 119.863 124.812 119.309 125.563 119.309C126.31 119.309 126.736 119.863 126.736 120.811C126.736 121.763 126.31 122.317 125.563 122.317ZM131.62 119.353V118.626H128.74V123H129.604V119.353H131.62ZM133.499 123L135.519 119.976H135.584V123H136.439V118.626H135.584L133.567 121.635H133.499V118.626H132.644V123H133.499ZM139.351 120.807C138.833 120.807 138.495 120.514 138.495 120.1C138.495 119.639 138.829 119.353 139.351 119.353H140.134V120.807H139.351ZM140.134 123H140.985V118.626H139.307C138.298 118.626 137.64 119.193 137.64 120.104C137.64 120.707 138.009 121.173 138.612 121.345L137.419 123H138.423L139.483 121.502H140.134V123Z" fill="#43525A"/>
<rect x="1" y="1" width="238" height="148" stroke="#E0E0E0" stroke-width="2"/>
</svg>
