<svg width="240" height="150" viewBox="0 0 240 150" fill="none" xmlns="http://www.w3.org/2000/svg">
<rect x="1" y="1" width="238" height="148" fill="white"/>
<rect width="180" height="120" transform="translate(29 15)" fill="#F0F0F0"/>
<path d="M38.5721 35.9112V43.1177H42.2689V31.5124H39.4612C38.9776 32.9475 38.1509 33.3686 35.7643 33.3686V35.9112H38.5721ZM51.9032 31.3252C46.1473 31.3252 45.0554 34.8661 45.0554 37.0499V37.5178C45.0554 39.6392 46.1473 43.3049 51.9032 43.3049H52.5895C58.3453 43.3049 59.4372 39.6392 59.4372 37.5178V37.0499C59.4372 34.8973 58.3765 31.3252 52.5895 31.3252H51.9032ZM55.5532 37.3618C55.5532 38.3757 55.132 40.3723 52.2619 40.3723C49.4074 40.3723 48.9394 38.3757 48.9394 37.3618V37.1591C48.9394 36.1608 49.3294 34.2265 52.2463 34.2265C55.1008 34.2265 55.5532 36.1608 55.5532 37.1591V37.3618ZM68.5637 31.3252C62.8078 31.3252 61.7159 34.8661 61.7159 37.0499V37.5178C61.7159 39.6392 62.8078 43.3049 68.5637 43.3049H69.25C75.0058 43.3049 76.0977 39.6392 76.0977 37.5178V37.0499C76.0977 34.8973 75.037 31.3252 69.25 31.3252H68.5637ZM72.2137 37.3618C72.2137 38.3757 71.7926 40.3723 68.9224 40.3723C66.0679 40.3723 65.6 38.3757 65.6 37.3618V37.1591C65.6 36.1608 65.9899 34.2265 68.9068 34.2265C71.7614 34.2265 72.2137 36.1608 72.2137 37.1591V37.3618ZM82.4633 38.1418C85.8793 38.1418 86.5345 36.114 86.5345 34.8661V34.6009C86.5345 33.353 85.8793 31.3876 82.4633 31.3876H82.1513C78.7664 31.3876 78.0957 33.353 78.0957 34.6009V34.8661C78.0957 36.114 78.7664 38.1418 82.1513 38.1418H82.4633ZM92.2747 31.5124L81.4026 43.1177H84.3039L95.176 31.5124H92.2747ZM83.9607 34.7725C83.9607 35.5056 83.4772 36.1764 82.3073 36.1764C81.153 36.1764 80.685 35.5056 80.685 34.7569V34.6789C80.685 33.9146 81.1374 33.2906 82.3073 33.2906C83.4772 33.2906 83.9607 33.9146 83.9607 34.6789V34.7725ZM94.4273 43.2425C97.859 43.2425 98.5141 41.1835 98.5141 39.9356V39.686C98.5141 38.4537 97.859 36.4727 94.4273 36.4727H94.1309C90.7149 36.4727 90.0597 38.4537 90.0597 39.686V39.9356C90.0597 41.1835 90.7149 43.2425 94.1309 43.2425H94.4273ZM94.2713 38.3913C95.4568 38.3913 95.9248 38.9997 95.9248 39.764V39.8576C95.9248 40.5907 95.4412 41.2771 94.2713 41.2771C93.117 41.2771 92.6491 40.5907 92.6491 39.842V39.764C92.6491 38.9997 93.1014 38.3913 94.2713 38.3913Z" fill="#43525A"/>
<path d="M38.8364 55.8236H40.3921V50.9325H35.646V55.8236H37.2017V52.0839H38.8364V55.8236ZM43.9385 55.9379C45.5073 55.9379 46.4302 54.9886 46.4302 53.3759C46.4302 51.785 45.4854 50.8182 43.9385 50.8182C42.4004 50.8182 41.4468 51.7938 41.4468 53.3759C41.4468 54.9843 42.374 55.9379 43.9385 55.9379ZM43.9385 54.7513C43.3672 54.7513 43.042 54.2504 43.042 53.3759C43.042 52.5233 43.376 52.0048 43.9385 52.0048C44.501 52.0048 44.835 52.5233 44.835 53.3759C44.835 54.246 44.5098 54.7513 43.9385 54.7513ZM49.2866 53.3978L49.3613 52.0839H50.4248V55.8236H51.9805V50.9325H48.043L47.9287 53.2836C47.8936 53.9955 47.7705 54.5668 47.3091 54.5668C47.1729 54.5668 47.0674 54.5448 47.0103 54.5316V55.8236C47.0806 55.8456 47.2563 55.8851 47.4893 55.8851C48.7812 55.8851 49.2075 54.892 49.2866 53.3978ZM56.5112 55.8236H58.0669V50.9325H56.5112V52.7562H54.8325V50.9325H53.2769V55.8236H54.8325V53.9076H56.5112V55.8236ZM64.2808 55.8236H65.8364V50.9325H64.2808V55.8236ZM61.5825 53.4154C61.9956 53.4154 62.2681 53.6703 62.2681 54.0438C62.2681 54.413 62 54.6722 61.5825 54.6722H60.9146V53.4154H61.5825ZM59.3589 55.8236H61.8901C63.0635 55.8236 63.8105 55.1337 63.8105 54.0526C63.8105 52.9716 63.0635 52.2816 61.8901 52.2816H60.9146V50.9325H59.3589V55.8236ZM68.6533 55.8236L70.3628 53.0067H70.4463V55.8236H71.9668V50.9325H70.4463L68.7368 53.6967H68.6533V50.9325H67.1284V55.8236H68.6533ZM67.7173 48.621C67.7173 49.557 68.416 50.1986 69.4751 50.1986C70.5342 50.1986 71.2329 49.557 71.2329 48.621H70.1343C70.1167 49.078 69.8618 49.39 69.4751 49.39C69.0884 49.39 68.8335 49.078 68.8159 48.621H67.7173ZM80.9229 57.076V54.6722H80.2065V50.9325H78.6509V54.6722H77.0249V50.9325H75.4692V55.8236H79.5122V57.076H80.9229ZM83.2871 55.8236L84.9966 53.0067H85.0801V55.8236H86.6006V50.9325H85.0801L83.3706 53.6967H83.2871V50.9325H81.7622V55.8236H83.2871ZM89.6943 53.8724L90.9424 55.8236H92.7573L90.9556 53.1385L92.6475 50.9325H90.916L89.668 52.787H89.4526V50.9325H87.897V55.8236H89.4526V53.8724H89.6943ZM95.3677 53.3978L95.4424 52.0839H96.5059V55.8236H98.0615V50.9325H94.124L94.0098 53.2836C93.9746 53.9955 93.8516 54.5668 93.3901 54.5668C93.2539 54.5668 93.1484 54.5448 93.0913 54.5316V55.8236C93.1616 55.8456 93.3374 55.8851 93.5703 55.8851C94.8623 55.8851 95.2886 54.892 95.3677 53.3978Z" fill="#43525A"/>
<path d="M38.5422 71.3534V70.6264H35.6627V75H36.5261V71.3534H38.5422ZM41.237 71.2771C41.8756 71.2771 42.2933 71.7228 42.3133 72.4096H40.1045C40.1527 71.7269 40.5985 71.2771 41.237 71.2771ZM42.3093 73.8193C42.1487 74.1606 41.7913 74.3494 41.2692 74.3494C40.5784 74.3494 40.1326 73.8634 40.1045 73.0964V73.0482H43.1929V72.747C43.1929 71.3734 42.4579 70.5421 41.241 70.5421C40.0081 70.5421 39.225 71.4297 39.225 72.8273C39.225 74.2249 39.992 75.0843 41.2451 75.0843C42.2451 75.0843 42.9439 74.6024 43.1407 73.8193H42.3093ZM46.1568 75.0843C47.4339 75.0843 48.217 74.2289 48.217 72.8112C48.217 71.4016 47.4299 70.5421 46.1568 70.5421C44.8796 70.5421 44.0925 71.4016 44.0925 72.8112C44.0925 74.2289 44.8756 75.0843 46.1568 75.0843ZM46.1568 74.3173C45.4058 74.3173 44.9841 73.7671 44.9841 72.8112C44.9841 71.8634 45.4058 71.3092 46.1568 71.3092C46.9038 71.3092 47.3295 71.8634 47.3295 72.8112C47.3295 73.763 46.9038 74.3173 46.1568 74.3173ZM50.4861 73L50.6066 71.3534H51.9922V75H52.8557V70.6264H49.8436L49.691 72.9558C49.6387 73.7108 49.4861 74.2209 49.0604 74.2209C48.952 74.2209 48.8677 74.2008 48.8275 74.1887V74.996C48.8797 75.0161 48.9801 75.0442 49.1247 75.0442C50.0926 75.0442 50.4018 74.245 50.4861 73ZM56.0364 75.0843C57.3135 75.0843 58.0967 74.2289 58.0967 72.8112C58.0967 71.4016 57.3095 70.5421 56.0364 70.5421C54.7593 70.5421 53.9721 71.4016 53.9721 72.8112C53.9721 74.2289 54.7553 75.0843 56.0364 75.0843ZM56.0364 74.3173C55.2854 74.3173 54.8637 73.7671 54.8637 72.8112C54.8637 71.8634 55.2854 71.3092 56.0364 71.3092C56.7834 71.3092 57.2091 71.8634 57.2091 72.8112C57.2091 73.763 56.7834 74.3173 56.0364 74.3173ZM62.0927 71.3534V70.6264H59.2132V75H60.0766V71.3534H62.0927ZM64.8397 75.0843C66.1169 75.0843 66.9 74.2289 66.9 72.8112C66.9 71.4016 66.1129 70.5421 64.8397 70.5421C63.5626 70.5421 62.7755 71.4016 62.7755 72.8112C62.7755 74.2289 63.5586 75.0843 64.8397 75.0843ZM64.8397 74.3173C64.0887 74.3173 63.667 73.7671 63.667 72.8112C63.667 71.8634 64.0887 71.3092 64.8397 71.3092C65.5867 71.3092 66.0125 71.8634 66.0125 72.8112C66.0125 73.763 65.5867 74.3173 64.8397 74.3173ZM70.2856 70.5542C69.6912 70.5542 69.1772 70.8514 68.9121 71.3493H68.8478V70.6264H68.0165V76.4538H68.88V74.3373H68.9482C69.1772 74.7992 69.6711 75.0723 70.2936 75.0723C71.3981 75.0723 72.1009 74.2008 72.1009 72.8112C72.1009 71.4216 71.3981 70.5542 70.2856 70.5542ZM70.0406 74.2972C69.3177 74.2972 68.8639 73.7269 68.8639 72.8152C68.8639 71.8996 69.3177 71.3293 70.0446 71.3293C70.7756 71.3293 71.2133 71.8875 71.2133 72.8112C71.2133 73.7389 70.7756 74.2972 70.0406 74.2972ZM74.6551 74.3454C74.1853 74.3454 73.8439 74.1165 73.8439 73.7229C73.8439 73.3373 74.117 73.1325 74.7194 73.0923L75.7877 73.0241V73.3895C75.7877 73.9317 75.3057 74.3454 74.6551 74.3454ZM74.4342 75.0723C75.0086 75.0723 75.4865 74.8233 75.7475 74.3855H75.8158V75H76.6471V72.012C76.6471 71.0883 76.0286 70.5421 74.9322 70.5421C73.9403 70.5421 73.2334 71.024 73.1451 71.7751H73.9804C74.0768 71.4658 74.4102 71.2891 74.8921 71.2891C75.4825 71.2891 75.7877 71.5502 75.7877 72.012V72.3895L74.6029 72.4578C73.5628 72.5221 72.9764 72.9759 72.9764 73.763C72.9764 74.5622 73.5909 75.0723 74.4342 75.0723ZM79.5227 75.0803C80.603 75.0803 81.3098 74.5301 81.3098 73.6988C81.3098 73.2128 81.0207 72.8474 80.4544 72.7148V72.6466C80.8681 72.5462 81.1452 72.1887 81.1452 71.751C81.1452 71.012 80.5508 70.5421 79.5106 70.5421C78.5227 70.5421 77.8761 71.0441 77.7877 71.8233H78.619C78.6753 71.4779 79.0287 71.273 79.5106 71.273C80.0408 71.273 80.2978 71.518 80.2978 71.8393C80.2978 72.2048 80.0327 72.4056 79.5106 72.4056H78.868V73.0763H79.5227C80.1331 73.0763 80.4504 73.2771 80.4504 73.6988C80.4504 74.0924 80.097 74.3454 79.5227 74.3454C79.0166 74.3454 78.6552 74.1446 78.5709 73.759H77.7114C77.7917 74.6426 78.5668 75.0803 79.5227 75.0803ZM84.2416 71.2891C84.6994 71.2891 84.9163 71.51 84.9163 71.8514C84.9163 72.2208 84.6673 72.4217 84.1452 72.4217H83.2898V71.2891H84.2416ZM84.2055 73.0562C84.7878 73.0562 85.097 73.261 85.097 73.6988C85.097 74.1124 84.8239 74.3373 84.3139 74.3373H83.2898V73.0562H84.2055ZM82.4344 75H84.4264C85.3862 75 85.9605 74.502 85.9605 73.7389C85.9605 73.2088 85.591 72.7952 85.0248 72.7309V72.6626C85.4505 72.5823 85.7637 72.1807 85.7637 71.7389C85.7637 71.0602 85.2617 70.6264 84.4063 70.6264H82.4344V75ZM88.8521 71.2771C89.4907 71.2771 89.9083 71.7228 89.9284 72.4096H87.7196C87.7678 71.7269 88.2135 71.2771 88.8521 71.2771ZM89.9244 73.8193C89.7638 74.1606 89.4063 74.3494 88.8842 74.3494C88.1935 74.3494 87.7477 73.8634 87.7196 73.0964V73.0482H90.808V72.747C90.808 71.3734 90.073 70.5421 88.8561 70.5421C87.6232 70.5421 86.84 71.4297 86.84 72.8273C86.84 74.2249 87.6071 75.0843 88.8601 75.0843C89.8602 75.0843 90.559 74.6024 90.7557 73.8193H89.9244ZM94.6755 74.2731H92.6755V74.2048C92.8722 73.9317 92.9767 73.494 93.0168 73L93.1373 71.3534H94.6755V74.2731ZM92.1694 76.1446V75H95.4185V76.1446H96.2177V74.2731H95.5349V70.6264H92.3863L92.2256 72.9558C92.1855 73.5462 92.0409 74.0763 91.7196 74.2731H91.3662V76.1446H92.1694ZM98.9446 75.0843C100.222 75.0843 101.005 74.2289 101.005 72.8112C101.005 71.4016 100.218 70.5421 98.9446 70.5421C97.6675 70.5421 96.8803 71.4016 96.8803 72.8112C96.8803 74.2289 97.6635 75.0843 98.9446 75.0843ZM98.9446 74.3173C98.1936 74.3173 97.7719 73.7671 97.7719 72.8112C97.7719 71.8634 98.1936 71.3092 98.9446 71.3092C99.6916 71.3092 100.117 71.8634 100.117 72.8112C100.117 73.763 99.6916 74.3173 98.9446 74.3173ZM105.567 75V70.6264H104.704V72.3654C104.515 72.5582 104.19 72.7349 103.7 72.7349C103.137 72.7349 102.836 72.3976 102.836 71.8634V70.6264H101.973V71.9196C101.973 72.8755 102.555 73.5221 103.591 73.5221C104.049 73.5221 104.403 73.3775 104.635 73.1727H104.704V75H105.567ZM109.772 75H110.632V70.6264H109.772V72.3775H107.756V70.6264H106.893V75H107.756V73.1044H109.772V75ZM115.917 75H116.78V70.6264H115.917V75ZM113.624 72.6907C114.146 72.6907 114.487 73.004 114.487 73.4819C114.487 73.9558 114.15 74.2731 113.624 74.2731H112.824V72.6907H113.624ZM111.961 75H113.688C114.7 75 115.346 74.4096 115.346 73.4819C115.346 72.5582 114.7 71.9678 113.688 71.9678H112.824V70.6264H111.961V75ZM119.744 73.4498L120.696 75H121.688L120.23 72.7871L121.672 70.6264H120.712L119.78 72.1686H119.712L118.772 70.6264H117.764L119.226 72.8233L117.776 75H118.724L119.68 73.4498H119.744ZM127.194 70.5542C126.6 70.5542 126.086 70.8514 125.82 71.3493H125.756V70.6264H124.925V76.4538H125.788V74.3373H125.857C126.086 74.7992 126.58 75.0723 127.202 75.0723C128.306 75.0723 129.009 74.2008 129.009 72.8112C129.009 71.4216 128.306 70.5542 127.194 70.5542ZM126.949 74.2972C126.226 74.2972 125.772 73.7269 125.772 72.8152C125.772 71.8996 126.226 71.3293 126.953 71.3293C127.684 71.3293 128.122 71.8875 128.122 72.8112C128.122 73.7389 127.684 74.2972 126.949 74.2972ZM131.564 74.3454C131.094 74.3454 130.752 74.1165 130.752 73.7229C130.752 73.3373 131.025 73.1325 131.628 73.0923L132.696 73.0241V73.3895C132.696 73.9317 132.214 74.3454 131.564 74.3454ZM131.343 75.0723C131.917 75.0723 132.395 74.8233 132.656 74.3855H132.724V75H133.556V72.012C133.556 71.0883 132.937 70.5421 131.841 70.5421C130.849 70.5421 130.142 71.024 130.053 71.7751H130.889C130.985 71.4658 131.319 71.2891 131.8 71.2891C132.391 71.2891 132.696 71.5502 132.696 72.012V72.3895L131.511 72.4578C130.471 72.5221 129.885 72.9759 129.885 73.763C129.885 74.5622 130.499 75.0723 131.343 75.0723ZM136.736 74.3173C135.977 74.3173 135.543 73.7911 135.543 72.8715C135.543 71.9959 135.977 71.4899 136.736 71.4899C137.495 71.4899 137.929 71.9959 137.929 72.8715C137.929 73.7911 137.499 74.3173 136.736 74.3173ZM135.359 71.5662C135.487 70.5381 135.829 69.9638 136.961 69.9156L137.439 69.8995C138.266 69.8674 138.531 69.6706 138.531 69.6706V68.9076C138.527 68.9116 138.078 69.0883 137.391 69.1204L136.913 69.1405C135.218 69.2088 134.656 70.3453 134.656 72.4578C134.656 74.2289 135.423 75.0843 136.744 75.0843C138.025 75.0843 138.821 74.241 138.821 72.8594C138.821 71.5461 138.042 70.7469 136.897 70.7469C136.17 70.7469 135.688 71.0803 135.427 71.5662H135.359ZM141.797 75.0843C143.074 75.0843 143.857 74.2289 143.857 72.8112C143.857 71.4016 143.07 70.5421 141.797 70.5421C140.519 70.5421 139.732 71.4016 139.732 72.8112C139.732 74.2289 140.515 75.0843 141.797 75.0843ZM141.797 74.3173C141.046 74.3173 140.624 73.7671 140.624 72.8112C140.624 71.8634 141.046 71.3092 141.797 71.3092C142.544 71.3092 142.969 71.8634 142.969 72.8112C142.969 73.763 142.544 74.3173 141.797 74.3173ZM147.969 70.6264H144.351V71.3534H145.728V75H146.592V71.3534H147.969V70.6264ZM149.042 76.5141L149.708 74.1325H148.805L148.431 76.5141H149.042ZM38.5021 88H39.3615V83.6264H35.6627V88H36.5261V84.3534H38.5021V88ZM42.9599 83.5542C42.3656 83.5542 41.8515 83.8514 41.5864 84.3493H41.5222V83.6264H40.6908V89.4538H41.5543V87.3373H41.6226C41.8515 87.7992 42.3455 88.0723 42.968 88.0723C44.0724 88.0723 44.7752 87.2008 44.7752 85.8112C44.7752 84.4216 44.0724 83.5542 42.9599 83.5542ZM42.715 87.2972C41.9921 87.2972 41.5382 86.7269 41.5382 85.8152C41.5382 84.8996 41.9921 84.3293 42.719 84.3293C43.4499 84.3293 43.8877 84.8875 43.8877 85.8112C43.8877 86.7389 43.4499 87.2972 42.715 87.2972ZM47.7472 88.0843C49.0243 88.0843 49.8074 87.2289 49.8074 85.8112C49.8074 84.4016 49.0203 83.5421 47.7472 83.5421C46.47 83.5421 45.6829 84.4016 45.6829 85.8112C45.6829 87.2289 46.466 88.0843 47.7472 88.0843ZM47.7472 87.3173C46.9961 87.3173 46.5744 86.7671 46.5744 85.8112C46.5744 84.8634 46.9961 84.3092 47.7472 84.3092C48.4942 84.3092 48.9199 84.8634 48.9199 85.8112C48.9199 86.763 48.4942 87.3173 47.7472 87.3173ZM52.7231 84.2771C53.3617 84.2771 53.7794 84.7228 53.7994 85.4096H51.5906C51.6388 84.7269 52.0846 84.2771 52.7231 84.2771ZM53.7954 86.8193C53.6348 87.1606 53.2773 87.3494 52.7553 87.3494C52.0645 87.3494 51.6187 86.8634 51.5906 86.0964V86.0482H54.679V85.747C54.679 84.3734 53.944 83.5421 52.7271 83.5421C51.4942 83.5421 50.711 84.4297 50.711 85.8273C50.711 87.2249 51.4781 88.0843 52.7312 88.0843C53.7312 88.0843 54.43 87.6024 54.6268 86.8193H53.7954ZM56.8517 86.0883L58.4461 88H59.5224L57.5585 85.6586L59.4421 83.6264H58.426L56.8477 85.4016H56.6549V83.6264H55.7914V88H56.6549V86.0883H56.8517ZM63.5104 83.6264H59.8919V84.3534H61.2694V88H62.1329V84.3534H63.5104V83.6264ZM65.3377 88L67.3579 84.9759H67.4221V88H68.2775V83.6264H67.4221L65.406 86.6345H65.3377V83.6264H64.4823V88H65.3377ZM71.876 83.5542C71.2816 83.5542 70.7675 83.8514 70.5025 84.3493H70.4382V83.6264H69.6069V89.4538H70.4703V87.3373H70.5386C70.7675 87.7992 71.2615 88.0723 71.884 88.0723C72.9884 88.0723 73.6913 87.2008 73.6913 85.8112C73.6913 84.4216 72.9884 83.5542 71.876 83.5542ZM71.631 87.2972C70.9081 87.2972 70.4543 86.7269 70.4543 85.8152C70.4543 84.8996 70.9081 84.3293 71.635 84.3293C72.3659 84.3293 72.8037 84.8875 72.8037 85.8112C72.8037 86.7389 72.3659 87.2972 71.631 87.2972ZM76.6632 88.0843C77.9403 88.0843 78.7235 87.2289 78.7235 85.8112C78.7235 84.4016 77.9363 83.5421 76.6632 83.5421C75.3861 83.5421 74.5989 84.4016 74.5989 85.8112C74.5989 87.2289 75.3821 88.0843 76.6632 88.0843ZM76.6632 87.3173C75.9122 87.3173 75.4905 86.7671 75.4905 85.8112C75.4905 84.8634 75.9122 84.3092 76.6632 84.3092C77.4102 84.3092 77.8359 84.8634 77.8359 85.8112C77.8359 86.763 77.4102 87.3173 76.6632 87.3173ZM81.6472 84.2891C82.105 84.2891 82.3219 84.51 82.3219 84.8514C82.3219 85.2208 82.0729 85.4217 81.5508 85.4217H80.6954V84.2891H81.6472ZM81.6111 86.0562C82.1934 86.0562 82.5026 86.261 82.5026 86.6988C82.5026 87.1124 82.2295 87.3373 81.7195 87.3373H80.6954V86.0562H81.6111ZM79.8399 88H81.8319C82.7918 88 83.3661 87.502 83.3661 86.7389C83.3661 86.2088 82.9966 85.7952 82.4303 85.7309V85.6626C82.856 85.5823 83.1693 85.1807 83.1693 84.7389C83.1693 84.0602 82.6673 83.6264 81.8119 83.6264H79.8399V88ZM85.9404 87.3454C85.4705 87.3454 85.1292 87.1165 85.1292 86.7229C85.1292 86.3373 85.4023 86.1325 86.0047 86.0923L87.073 86.0241V86.3895C87.073 86.9317 86.591 87.3454 85.9404 87.3454ZM85.7195 88.0723C86.2938 88.0723 86.7718 87.8233 87.0328 87.3855H87.1011V88H87.9324V85.012C87.9324 84.0883 87.3139 83.5421 86.2175 83.5421C85.2256 83.5421 84.5187 84.024 84.4304 84.7751H85.2657C85.3621 84.4658 85.6954 84.2891 86.1774 84.2891C86.7677 84.2891 87.073 84.5502 87.073 85.012V85.3895L85.8882 85.4578C84.848 85.5221 84.2617 85.9759 84.2617 86.763C84.2617 87.5622 84.8762 88.0723 85.7195 88.0723ZM92.1172 88H92.9767V83.6264H92.1172V85.3775H90.1011V83.6264H89.2377V88H90.1011V86.1044H92.1172V88ZM95.1614 88L97.1815 84.9759H97.2458V88H98.1012V83.6264H97.2458L95.2297 86.6345H95.1614V83.6264H94.306V88H95.1614ZM101.013 85.8072C100.495 85.8072 100.157 85.514 100.157 85.1004C100.157 84.6385 100.491 84.3534 101.013 84.3534H101.796V85.8072H101.013ZM101.796 88H102.647V83.6264H100.969C99.9607 83.6264 99.302 84.1927 99.302 85.1044C99.302 85.7068 99.6715 86.1727 100.274 86.3454L99.0812 88H100.085L101.145 86.502H101.796V88ZM108.495 83.5542C107.901 83.5542 107.386 83.8514 107.121 84.3493H107.057V83.6264H106.226V89.4538H107.089V87.3373H107.158C107.386 87.7992 107.88 88.0723 108.503 88.0723C109.607 88.0723 110.31 87.2008 110.31 85.8112C110.31 84.4216 109.607 83.5542 108.495 83.5542ZM108.25 87.2972C107.527 87.2972 107.073 86.7269 107.073 85.8152C107.073 84.8996 107.527 84.3293 108.254 84.3293C108.985 84.3293 109.423 84.8875 109.423 85.8112C109.423 86.7389 108.985 87.2972 108.25 87.2972ZM112.864 87.3454C112.395 87.3454 112.053 87.1165 112.053 86.7229C112.053 86.3373 112.326 86.1325 112.929 86.0923L113.997 86.0241V86.3895C113.997 86.9317 113.515 87.3454 112.864 87.3454ZM112.644 88.0723C113.218 88.0723 113.696 87.8233 113.957 87.3855H114.025V88H114.856V85.012C114.856 84.0883 114.238 83.5421 113.142 83.5421C112.15 83.5421 111.443 84.024 111.354 84.7751H112.19C112.286 84.4658 112.619 84.2891 113.101 84.2891C113.692 84.2891 113.997 84.5502 113.997 85.012V85.3895L112.812 85.4578C111.772 85.5221 111.186 85.9759 111.186 86.763C111.186 87.5622 111.8 88.0723 112.644 88.0723ZM117.732 88.0803C118.812 88.0803 119.519 87.5301 119.519 86.6988C119.519 86.2128 119.23 85.8474 118.664 85.7148V85.6466C119.077 85.5462 119.355 85.1887 119.355 84.751C119.355 84.012 118.76 83.5421 117.72 83.5421C116.732 83.5421 116.085 84.0441 115.997 84.8233H116.828C116.885 84.4779 117.238 84.273 117.72 84.273C118.25 84.273 118.507 84.518 118.507 84.8393C118.507 85.2048 118.242 85.4056 117.72 85.4056H117.077V86.0763H117.732C118.342 86.0763 118.66 86.2771 118.66 86.6988C118.66 87.0924 118.306 87.3454 117.732 87.3454C117.226 87.3454 116.865 87.1446 116.78 86.759H115.921C116.001 87.6426 116.776 88.0803 117.732 88.0803ZM122.913 83.5542C122.318 83.5542 121.804 83.8514 121.539 84.3493H121.475V83.6264H120.644V89.4538H121.507V87.3373H121.575C121.804 87.7992 122.298 88.0723 122.921 88.0723C124.025 88.0723 124.728 87.2008 124.728 85.8112C124.728 84.4216 124.025 83.5542 122.913 83.5542ZM122.668 87.2972C121.945 87.2972 121.491 86.7269 121.491 85.8152C121.491 84.8996 121.945 84.3293 122.672 84.3293C123.403 84.3293 123.841 84.8875 123.841 85.8112C123.841 86.7389 123.403 87.2972 122.668 87.2972ZM127.282 87.3454C126.812 87.3454 126.471 87.1165 126.471 86.7229C126.471 86.3373 126.744 86.1325 127.347 86.0923L128.415 86.0241V86.3895C128.415 86.9317 127.933 87.3454 127.282 87.3454ZM127.061 88.0723C127.636 88.0723 128.114 87.8233 128.375 87.3855H128.443V88H129.274V85.012C129.274 84.0883 128.656 83.5421 127.559 83.5421C126.567 83.5421 125.861 84.024 125.772 84.7751H126.608C126.704 84.4658 127.037 84.2891 127.519 84.2891C128.11 84.2891 128.415 84.5502 128.415 85.012V85.3895L127.23 85.4578C126.19 85.5221 125.604 85.9759 125.604 86.763C125.604 87.5622 126.218 88.0723 127.061 88.0723ZM132.455 87.3173C131.696 87.3173 131.262 86.7911 131.262 85.8715C131.262 84.9959 131.696 84.4899 132.455 84.4899C133.214 84.4899 133.648 84.9959 133.648 85.8715C133.648 86.7911 133.218 87.3173 132.455 87.3173ZM131.078 84.5662C131.206 83.5381 131.547 82.9638 132.68 82.9156L133.158 82.8995C133.985 82.8674 134.25 82.6706 134.25 82.6706V81.9076C134.246 81.9116 133.796 82.0883 133.11 82.1204L132.632 82.1405C130.937 82.2088 130.375 83.3453 130.375 85.4578C130.375 87.2289 131.142 88.0843 132.463 88.0843C133.744 88.0843 134.539 87.241 134.539 85.8594C134.539 84.5461 133.76 83.7469 132.616 83.7469C131.889 83.7469 131.407 84.0803 131.146 84.5662H131.078ZM137.515 88.0843C138.793 88.0843 139.576 87.2289 139.576 85.8112C139.576 84.4016 138.789 83.5421 137.515 83.5421C136.238 83.5421 135.451 84.4016 135.451 85.8112C135.451 87.2289 136.234 88.0843 137.515 88.0843ZM137.515 87.3173C136.764 87.3173 136.343 86.7671 136.343 85.8112C136.343 84.8634 136.764 84.3092 137.515 84.3092C138.262 84.3092 138.688 84.8634 138.688 85.8112C138.688 86.763 138.262 87.3173 137.515 87.3173ZM143.688 83.6264H140.07V84.3534H141.447V88H142.311V84.3534H143.688V83.6264ZM145.72 86.0883L147.315 88H148.391L146.427 85.6586L148.311 83.6264H147.295L145.716 85.4016H145.524V83.6264H144.66V88H145.524V86.0883H145.72ZM150.166 88L152.186 84.9759H152.251V88H153.106V83.6264H152.251L150.234 86.6345H150.166V83.6264H149.311V88H150.166ZM157.54 88L159.56 84.9759H159.624V88H160.48V83.6264H159.624L157.608 86.6345H157.54V83.6264H156.684V88H157.54ZM37.5141 100.084C38.7912 100.084 39.5744 99.2289 39.5744 97.8112C39.5744 96.4016 38.7872 95.5421 37.5141 95.5421C36.237 95.5421 35.4498 96.4016 35.4498 97.8112C35.4498 99.2289 36.2329 100.084 37.5141 100.084ZM37.5141 99.3173C36.7631 99.3173 36.3414 98.7671 36.3414 97.8112C36.3414 96.8634 36.7631 96.3092 37.5141 96.3092C38.2611 96.3092 38.6868 96.8634 38.6868 97.8112C38.6868 98.763 38.2611 99.3173 37.5141 99.3173ZM42.5664 99.3173C41.8073 99.3173 41.3736 98.7911 41.3736 97.8715C41.3736 96.9959 41.8073 96.4899 42.5664 96.4899C43.3254 96.4899 43.7592 96.9959 43.7592 97.8715C43.7592 98.7911 43.3294 99.3173 42.5664 99.3173ZM41.1888 96.5662C41.3174 95.5381 41.6587 94.9638 42.7913 94.9156L43.2692 94.8995C44.0965 94.8674 44.3616 94.6706 44.3616 94.6706V93.9076C44.3576 93.9116 43.9077 94.0883 43.221 94.1204L42.7431 94.1405C41.0483 94.2088 40.486 95.3453 40.486 97.4578C40.486 99.2289 41.2531 100.084 42.5744 100.084C43.8555 100.084 44.6507 99.241 44.6507 97.8594C44.6507 96.5461 43.8716 95.7469 42.727 95.7469C42.0001 95.7469 41.5182 96.0803 41.2571 96.5662H41.1888ZM46.0443 101.586C46.9359 101.586 47.3496 101.245 47.7231 100.181L49.3536 95.6264H48.4379L47.3455 99.1004H47.2773L46.1809 95.6264H45.2411L46.8234 100.016L46.7592 100.229C46.6106 100.671 46.3777 100.839 45.968 100.839C45.8877 100.839 45.7552 100.835 45.6869 100.823V101.566C45.7672 101.578 45.972 101.586 46.0443 101.586ZM53.8517 97.0562C53.7392 96.1807 53.0765 95.5421 51.9801 95.5421C50.707 95.5421 49.9319 96.3975 49.9319 97.7992C49.9319 99.2249 50.711 100.084 51.9842 100.084C53.0645 100.084 53.7392 99.4739 53.8517 98.5944H53.0123C52.8998 99.0642 52.5263 99.3132 51.9801 99.3132C51.2613 99.3132 50.8155 98.747 50.8155 97.7992C50.8155 96.8674 51.2572 96.3132 51.9801 96.3132C52.5585 96.3132 52.9119 96.6305 53.0123 97.0562H53.8517ZM57.9923 95.6264H54.3737V96.3534H55.7513V100H56.6147V96.3534H57.9923V95.6264ZM61.2333 95.5542C60.6389 95.5542 60.1248 95.8514 59.8598 96.3493H59.7955V95.6264H58.9642V101.454H59.8276V99.3373H59.8959C60.1248 99.7992 60.6188 100.072 61.2413 100.072C62.3457 100.072 63.0486 99.2008 63.0486 97.8112C63.0486 96.4216 62.3457 95.5542 61.2333 95.5542ZM60.9883 99.2972C60.2654 99.2972 59.8116 98.7269 59.8116 97.8152C59.8116 96.8996 60.2654 96.3293 60.9923 96.3293C61.7232 96.3293 62.161 96.8875 62.161 97.8112C62.161 98.7389 61.7232 99.2972 60.9883 99.2972ZM66.0205 100.084C67.2976 100.084 68.0808 99.2289 68.0808 97.8112C68.0808 96.4016 67.2936 95.5421 66.0205 95.5421C64.7434 95.5421 63.9562 96.4016 63.9562 97.8112C63.9562 99.2289 64.7393 100.084 66.0205 100.084ZM66.0205 99.3173C65.2695 99.3173 64.8478 98.7671 64.8478 97.8112C64.8478 96.8634 65.2695 96.3092 66.0205 96.3092C66.7675 96.3092 67.1932 96.8634 67.1932 97.8112C67.1932 98.763 66.7675 99.3173 66.0205 99.3173ZM70.0527 100L72.0728 96.9759H72.137V100H72.9925V95.6264H72.137L70.1209 98.6345H70.0527V95.6264H69.1972V100H70.0527ZM69.635 93.6465C69.635 94.4256 70.2053 95.004 71.0647 95.004C71.9242 95.004 72.4985 94.4256 72.4985 93.6465H71.7836C71.7796 94.0762 71.5105 94.4457 71.0647 94.4457C70.627 94.4457 70.3539 94.0762 70.3539 93.6465H69.635ZM78.0287 97.0562C77.9162 96.1807 77.2536 95.5421 76.1572 95.5421C74.8841 95.5421 74.1089 96.3975 74.1089 97.7992C74.1089 99.2249 74.8881 100.084 76.1612 100.084C77.2415 100.084 77.9162 99.4739 78.0287 98.5944H77.1893C77.0769 99.0642 76.7034 99.3132 76.1572 99.3132C75.4383 99.3132 74.9925 98.747 74.9925 97.7992C74.9925 96.8674 75.4343 96.3132 76.1572 96.3132C76.7355 96.3132 77.0889 96.6305 77.1893 97.0562H78.0287ZM82.1693 95.6264H78.5508V96.3534H79.9283V100H80.7918V96.3534H82.1693V95.6264ZM84.9484 96.2891C85.4063 96.2891 85.6232 96.51 85.6232 96.8514C85.6232 97.2208 85.3742 97.4217 84.8521 97.4217H83.9966V96.2891H84.9484ZM84.9123 98.0562C85.4946 98.0562 85.8039 98.261 85.8039 98.6988C85.8039 99.1124 85.5308 99.3373 85.0207 99.3373H83.9966V98.0562H84.9123ZM83.1412 100H85.1332C86.093 100 86.6673 99.502 86.6673 98.7389C86.6673 98.2088 86.2979 97.7952 85.7316 97.7309V97.6626C86.1573 97.5823 86.4706 97.1807 86.4706 96.7389C86.4706 96.0602 85.9685 95.6264 85.1131 95.6264H83.1412V100ZM89.2417 99.3454C88.7718 99.3454 88.4304 99.1165 88.4304 98.7229C88.4304 98.3373 88.7035 98.1325 89.3059 98.0923L90.3742 98.0241V98.3895C90.3742 98.9317 89.8923 99.3454 89.2417 99.3454ZM89.0208 100.072C89.5951 100.072 90.073 99.8233 90.3341 99.3855H90.4023V100H91.2337V97.012C91.2337 96.0883 90.6152 95.5421 89.5188 95.5421C88.5268 95.5421 87.82 96.024 87.7316 96.7751H88.567C88.6634 96.4658 88.9967 96.2891 89.4786 96.2891C90.069 96.2891 90.3742 96.5502 90.3742 97.012V97.3895L89.1895 97.4578C88.1493 97.5221 87.5629 97.9759 87.5629 98.763C87.5629 99.5622 88.1774 100.072 89.0208 100.072ZM95.6273 100V96.9839H95.7036L96.9847 99.8233H97.6193L98.9004 96.9839H98.9767V100H99.8201V95.6264H98.7639L97.3502 98.755H97.2819L95.8723 95.6264H94.7879V100H95.6273ZM102.949 96.2771C103.587 96.2771 104.005 96.7228 104.025 97.4096H101.816C101.864 96.7269 102.31 96.2771 102.949 96.2771ZM104.021 98.8193C103.86 99.1606 103.503 99.3494 102.981 99.3494C102.29 99.3494 101.844 98.8634 101.816 98.0964V98.0482H104.905V97.747C104.905 96.3734 104.17 95.5421 102.953 95.5421C101.72 95.5421 100.937 96.4297 100.937 97.8273C100.937 99.2249 101.704 100.084 102.957 100.084C103.957 100.084 104.656 99.6024 104.852 98.8193H104.021ZM109.724 97.0562C109.611 96.1807 108.949 95.5421 107.852 95.5421C106.579 95.5421 105.804 96.3975 105.804 97.7992C105.804 99.2249 106.583 100.084 107.856 100.084C108.937 100.084 109.611 99.4739 109.724 98.5944H108.884C108.772 99.0642 108.399 99.3132 107.852 99.3132C107.133 99.3132 106.688 98.747 106.688 97.7992C106.688 96.8674 107.129 96.3132 107.852 96.3132C108.431 96.3132 108.784 96.6305 108.884 97.0562H109.724ZM113.864 95.6264H110.246V96.3534H111.623V100H112.487V96.3534H113.864V95.6264ZM116.543 100.084C117.82 100.084 118.604 99.2289 118.604 97.8112C118.604 96.4016 117.816 95.5421 116.543 95.5421C115.266 95.5421 114.479 96.4016 114.479 97.8112C114.479 99.2289 115.262 100.084 116.543 100.084ZM116.543 99.3173C115.792 99.3173 115.371 98.7671 115.371 97.8112C115.371 96.8634 115.792 96.3092 116.543 96.3092C117.29 96.3092 117.716 96.8634 117.716 97.8112C117.716 98.763 117.29 99.3173 116.543 99.3173ZM121.989 95.5542C121.395 95.5542 120.881 95.8514 120.616 96.3493H120.551V95.6264H119.72V101.454H120.583V99.3373H120.652C120.881 99.7992 121.375 100.072 121.997 100.072C123.102 100.072 123.804 99.2008 123.804 97.8112C123.804 96.4216 123.102 95.5542 121.989 95.5542ZM121.744 99.2972C121.021 99.2972 120.567 98.7269 120.567 97.8152C120.567 96.8996 121.021 96.3293 121.748 96.3293C122.479 96.3293 122.917 96.8875 122.917 97.8112C122.917 98.7389 122.479 99.2972 121.744 99.2972ZM126.776 100.084C128.053 100.084 128.837 99.2289 128.837 97.8112C128.837 96.4016 128.049 95.5421 126.776 95.5421C125.499 95.5421 124.712 96.4016 124.712 97.8112C124.712 99.2289 125.495 100.084 126.776 100.084ZM126.776 99.3173C126.025 99.3173 125.604 98.7671 125.604 97.8112C125.604 96.8634 126.025 96.3092 126.776 96.3092C127.523 96.3092 127.949 96.8634 127.949 97.8112C127.949 98.763 127.523 99.3173 126.776 99.3173ZM130.379 100L131.837 98.0723H132.062V100H132.901V98.0723H133.126L134.584 100H135.636L133.817 97.6546L135.543 95.6264H134.547L133.122 97.4176H132.901V95.6264H132.062V97.4176H131.841L130.415 95.6264H129.407L131.146 97.6666L129.339 100H130.379ZM139.295 99.2731H137.295V99.2048C137.491 98.9317 137.596 98.494 137.636 98L137.756 96.3534H139.295V99.2731ZM136.788 101.145V100H140.038V101.145H140.837V99.2731H140.154V95.6264H137.005L136.845 97.9558C136.805 98.5462 136.66 99.0763 136.339 99.2731H135.985V101.145H136.788ZM143.511 96.2771C144.15 96.2771 144.568 96.7228 144.588 97.4096H142.379C142.427 96.7269 142.873 96.2771 143.511 96.2771ZM144.584 98.8193C144.423 99.1606 144.066 99.3494 143.544 99.3494C142.853 99.3494 142.407 98.8634 142.379 98.0964V98.0482H145.467V97.747C145.467 96.3734 144.732 95.5421 143.515 95.5421C142.283 95.5421 141.499 96.4297 141.499 97.8273C141.499 99.2249 142.266 100.084 143.519 100.084C144.52 100.084 145.218 99.6024 145.415 98.8193H144.584ZM149.459 100H150.319V95.6264H149.459V97.3775H147.443V95.6264H146.58V100H147.443V98.1044H149.459V100ZM152.504 100L154.524 96.9759H154.588V100H155.443V95.6264H154.588L152.572 98.6345H152.504V95.6264H151.648V100H152.504ZM157.628 100L159.648 96.9759H159.712V100H160.568V95.6264H159.712L157.696 98.6345H157.628V95.6264H156.773V100H157.628ZM157.21 93.6465C157.21 94.4256 157.781 95.004 158.64 95.004C159.5 95.004 160.074 94.4256 160.074 93.6465H159.359C159.355 94.0762 159.086 94.4457 158.64 94.4457C158.202 94.4457 157.929 94.0762 157.929 93.6465H157.21ZM40.4619 113V107.205H35.7671V113H36.6707V108.028H39.5703V113H40.4619ZM45.7511 113H46.707L44.6146 107.205H43.6467L41.5543 113H42.478L43.0122 111.462H45.221L45.7511 113ZM44.0845 108.257H44.1527L44.9921 110.707H43.2411L44.0845 108.257ZM49.9962 107.064C48.3335 107.064 47.2893 108.229 47.2893 110.1C47.2893 111.968 48.3134 113.141 49.9962 113.141C51.6749 113.141 52.695 111.964 52.695 110.1C52.695 108.233 51.6669 107.064 49.9962 107.064ZM49.9962 107.904C51.0966 107.904 51.7753 108.755 51.7753 110.1C51.7753 111.438 51.0966 112.301 49.9962 112.301C48.8837 112.301 48.209 111.438 48.209 110.1C48.209 108.755 48.9038 107.904 49.9962 107.904ZM57.0766 110.699L58.4822 109.052H57.5666L56.1609 110.715V110.747L57.5585 112.406H58.4822L57.0766 110.755V110.699ZM59.0485 110.699L60.4541 109.052H59.5385L58.1288 110.715V110.747L59.5264 112.406H60.4541L59.0485 110.755V110.699ZM66.6831 113V107.205H65.7876V109.639H62.8116V107.205H61.912V113H62.8116V110.458H65.7876V113H66.6831ZM69.1169 109.715V107.205H68.2173V113H69.1169V110.458H69.2936L71.7113 113H72.8519L70.0567 110.016L72.6431 107.205H71.5788L69.2896 109.715H69.1169ZM76.9644 110.699L78.37 109.052H77.4544L76.0487 110.715V110.747L77.4463 112.406H78.37L76.9644 110.755V110.699ZM78.9363 110.699L80.342 109.052H79.4263L78.0166 110.715V110.747L79.4142 112.406H80.342L78.9363 110.755V110.699ZM81.7998 107.205V113H82.6994V111.048H84.0408C85.1774 111.048 85.9806 110.269 85.9806 109.136C85.9806 107.988 85.2015 107.205 84.0689 107.205H81.7998ZM82.6994 108H83.832C84.6231 108 85.0609 108.402 85.0609 109.136C85.0609 109.855 84.6071 110.257 83.832 110.257H82.6994V108ZM88.8802 113.084C90.1573 113.084 90.9405 112.229 90.9405 110.811C90.9405 109.402 90.1533 108.542 88.8802 108.542C87.6031 108.542 86.8159 109.402 86.8159 110.811C86.8159 112.229 87.5991 113.084 88.8802 113.084ZM88.8802 112.317C88.1292 112.317 87.7075 111.767 87.7075 110.811C87.7075 109.863 88.1292 109.309 88.8802 109.309C89.6272 109.309 90.0529 109.863 90.0529 110.811C90.0529 111.763 89.6272 112.317 88.8802 112.317ZM95.7638 110.056C95.6514 109.181 94.9887 108.542 93.8923 108.542C92.6192 108.542 91.8441 109.398 91.8441 110.799C91.8441 112.225 92.6232 113.084 93.8964 113.084C94.9767 113.084 95.6514 112.474 95.7638 111.594H94.9245C94.812 112.064 94.4385 112.313 93.8923 112.313C93.1734 112.313 92.7277 111.747 92.7277 110.799C92.7277 109.867 93.1694 109.313 93.8923 109.313C94.4707 109.313 94.8241 109.63 94.9245 110.056H95.7638ZM99.7077 113H100.567V108.626H99.7077V110.377H97.6916V108.626H96.8281V113H97.6916V111.104H99.7077V113ZM103.696 109.277C104.334 109.277 104.752 109.723 104.772 110.41H102.563C102.611 109.727 103.057 109.277 103.696 109.277ZM104.768 111.819C104.607 112.161 104.25 112.349 103.728 112.349C103.037 112.349 102.591 111.863 102.563 111.096V111.048H105.652V110.747C105.652 109.373 104.917 108.542 103.7 108.542C102.467 108.542 101.684 109.43 101.684 110.827C101.684 112.225 102.451 113.084 103.704 113.084C104.704 113.084 105.403 112.602 105.599 111.819H104.768ZM108.84 112.321C107.977 112.297 107.431 111.739 107.431 110.811C107.431 109.892 107.981 109.325 108.84 109.305V112.321ZM111.093 110.811C111.093 111.735 110.539 112.301 109.68 112.321V109.305C110.543 109.329 111.093 109.888 111.093 110.811ZM108.84 113.056V114.454H109.684V113.056C111.061 113.032 111.969 112.173 111.969 110.815C111.969 109.45 111.065 108.598 109.684 108.57V107.181H108.84V108.57C107.463 108.594 106.551 109.454 106.551 110.811C106.551 112.177 107.455 113.028 108.84 113.056ZM116.081 108.626H112.463V109.353H113.84V113H114.704V109.353H116.081V108.626ZM118.716 110.691C119.238 110.691 119.579 111.004 119.579 111.482C119.579 111.956 119.242 112.273 118.716 112.273H117.917V110.691H118.716ZM117.053 113H118.78C119.792 113 120.439 112.41 120.439 111.482C120.439 110.558 119.792 109.968 118.78 109.968H117.917V108.626H117.053V113ZM122.917 110.699V110.755L121.511 112.406H122.439L123.837 110.747V110.715L122.427 109.052H121.511L122.917 110.699ZM124.889 110.699V110.755L123.483 112.406H124.407L125.804 110.747V110.715L124.399 109.052H123.483L124.889 110.699Z" fill="#43525A"/>
<rect x="1" y="1" width="238" height="148" stroke="#E0E0E0" stroke-width="2"/>
</svg>
